<svg width="150px" id="Layer_1" data-name="Layer 1" xmlns="http://www.w3.org/2000/svg" viewBox="0 0 425.2 425.2"><defs><style>.cls-1{fill:#ee3124;}.cls-2{fill:#fff;}</style></defs><polygon class="cls-1" points="318.9 318.9 318.9 106.3 106.3 106.3 106.3 0 0 0 0 212.6 106.3 212.6 106.3 318.9 212.6 318.9 212.6 425.2 425.2 425.2 425.2 318.9 318.9 318.9"/><polygon class="cls-2" points="184.47 152.07 166.82 152.07 166.82 134.43 152.07 134.43 152.07 152.07 134.43 152.07 134.43 166.82 152.07 166.82 152.07 184.47 166.82 184.47 166.82 166.82 184.47 166.82 184.47 152.07"/><path class="cls-2" d="M19.76,23H39.81V44.76H66.4V23h20V83.18h-20V59.36H39.81V83.18h-20Z"/><path class="cls-2" d="M43.13,129.33h20v60.15h-20Z"/><path class="cls-2" d="M125.73,235.63H160.2q16.78,0,25.71,7.85t8.94,22.18q0,9.73-4,16.4A25.43,25.43,0,0,1,179,292.25q-7.84,3.53-18.75,3.53H125.73Zm33,45.55a20.62,20.62,0,0,0,8.9-1.76,12.64,12.64,0,0,0,5.66-5.2,16.54,16.54,0,0,0,1.89-8.56q.08-7.46-4.16-11.45t-12.29-4H145.1v31Z"/><path class="cls-2" d="M252.28,189.6a36.53,36.53,0,0,1-11.53-5.2,22.48,22.48,0,0,1-7.3-8.09l11.83-8.14a19.84,19.84,0,0,0,5.49,5.12,29.34,29.34,0,0,0,7.76,3.52,31.38,31.38,0,0,0,8.9,1.26,21.08,21.08,0,0,0,6.12-.8,11.79,11.79,0,0,0,4.07-2,3.68,3.68,0,0,0,1.47-2.89c0-1.29-.87-2.38-2.61-3.28a28.19,28.19,0,0,0-8.22-2.18L259,165.57q-12.68-1.59-18.37-5.87T235,147.62a16.1,16.1,0,0,1,3.86-10.86,24.55,24.55,0,0,1,10.86-6.92,49.23,49.23,0,0,1,16.15-2.44A46.06,46.06,0,0,1,278,129a32.44,32.44,0,0,1,10,4.44,19.55,19.55,0,0,1,6.34,6.75l-11.07,8.06a18.32,18.32,0,0,0-4.49-4,22,22,0,0,0-6-2.68,25,25,0,0,0-6.88-.93,26.56,26.56,0,0,0-5.95.76,9.64,9.64,0,0,0-4,1.89,3.58,3.58,0,0,0-1.38,2.72c-.06,1.29.7,2.34,2.26,3.15a22.08,22.08,0,0,0,7.13,1.8l9.48,1.26q13.1,1.51,19.21,5.91t6,12.54a16.62,16.62,0,0,1-4,11.12,24.94,24.94,0,0,1-11.32,7.21,52.5,52.5,0,0,1-16.86,2.48A54.08,54.08,0,0,1,252.28,189.6Z"/><path class="cls-2" d="M240,235.63h53.18v13.93H259.29v9.64h30.53v11.92H259.29v10.73H294v13.93H240Z"/><path class="cls-2" d="M240,342h53.18V355.9H259.29v9.65h30.53v11.91H259.29v10.73H294v13.93H240Z"/><path class="cls-2" d="M341.05,342H361.1v21.3h.17L382.16,342h24.66l-24.66,23.65,25.08,36.49H383.08l-14.77-23.4-7.21,6.79v16.61H341.05Z"/></svg>